<?xml version="1.0" encoding="utf-8"?>
<!-- Generator: Adobe Illustrator 27.7.0, SVG Export Plug-In . SVG Version: 6.00 Build 0)  -->
<svg version="1.1" id="Layer_1" xmlns="http://www.w3.org/2000/svg" xmlns:xlink="http://www.w3.org/1999/xlink" x="0px" y="0px"
	 width="1920px" height="1200px" viewBox="0 0 1920 1200" style="enable-background:new 0 0 1920 1200;" xml:space="preserve">
<g id="Base">
	
		<image style="overflow:visible;enable-background:new    ;" width="1920" height="1200" xlink:href="../../tiny/1n-m.png"  transform="matrix(0.984 0 0 0.984 15.395 21.6219)">
	</image>
</g>
<g id="landmarks">
	<polygon id="_x31_101" points="216.3,1106.9 216.3,929 236.1,929 236.1,861.2 50.4,861.2 50.4,525.2 260.1,525.2 260.1,553.3 
		429.2,553.3 429.2,496 403.1,496 402,166.2 450,166.2 450,148.5 522,148.5 522,165.2 595.1,165.2 595.1,148.5 665,148.5 665,166.2 
		713,166.2 713,492.8 665,492.8 665,740.1 563.8,740.1 563.8,1106.9 	"/>
	<polygon id="_x31_102" points="563.8,962.9 617,962.9 617,978.6 800.1,978.6 800.1,962.9 829.9,962.9 829.9,1106.9 1163.3,1106.9 
		1163.3,1086.6 1362,1086.6 1362,551.3 665,551.3 665,740.1 563.8,740.1 	"/>
	<polygon id="_x31_103" points="1204.5,551.3 1204.5,166.2 1254.6,166.2 1254.6,148.5 1324.8,148.5 1324.8,166.9 1397.2,166.9 
		1397.2,148.5 1469.5,148.5 1469.5,166.2 1516.1,166.2 1516.1,491.8 1489,491.8 1489,551.3 1660.1,551.3 1660.1,528.7 1870.7,528.7 
		1870.7,858 1825.3,858 1825.3,881.5 1708,881.5 1708,859.6 1682.9,859.6 1682.9,926.9 1700.1,926.9 1700.1,1106.9 1362,1106.9 
		1362,551.3 	"/>
</g>
</svg>
