<?xml version="1.0" encoding="utf-8"?>
<!-- Generator: Adobe Illustrator 27.7.0, SVG Export Plug-In . SVG Version: 6.00 Build 0)  -->
<svg version="1.1" id="Layer_1" xmlns="http://www.w3.org/2000/svg" xmlns:xlink="http://www.w3.org/1999/xlink" x="0px" y="0px"
	 width="1920px" height="1200px" viewBox="0 0 1920 1200" style="enable-background:new 0 0 1920 1200;" xml:space="preserve">
<g id="Base">
	
		<image style="overflow:visible;enable-background:new    ;" width="1920" height="1200" xlink:href="../../tiny/2n-m.png"  transform="matrix(0.9811 0 0 0.9811 11.1788 16.8617)">
	</image>
</g>
<g id="landmarks">
	<polygon id="_x31_201" points="565.5,967.8 565.5,993.9 266.2,993.9 266.2,1016.5 41,1016.5 41,519.6 281,519.6 281,560.5 
		420.1,560.5 420.1,507.6 412.3,507.6 412.3,523.8 386.2,523.8 386.2,170.2 730.3,170.2 730.3,483.6 667.8,483.6 667.8,641.5 
		565.1,641.5 	"/>
	<polygon id="_x31_202" points="565.5,967.8 553.9,993.9 547.6,1095.2 829.9,1095.3 827.7,1108.3 1150.7,1108.3 1150.7,1091.3 
		1353.9,1091.3 1353.9,566.2 667.8,566.2 667.8,641.5 565.1,641.5 	"/>
	<polygon id="_x31_203" points="1241,566.2 1241,507.9 1194.8,507.9 1194.8,181.7 1237.7,181.7 1237.7,167.6 1315.3,167.6 
		1315.3,186.9 1379.3,186.9 1379.3,164.3 1457.5,164.3 1457.5,185.5 1504.1,185.5 1504.1,506.2 1483.8,506.2 1483.8,563.3 
		1624.3,563.3 1624.3,521.7 1867.8,521.7 1867.8,1016.5 1639.1,1016.5 1639.1,991.1 1353.9,991.1 1353.9,566.2 	"/>
</g>
</svg>
