<?xml version="1.0" encoding="utf-8"?>
<!-- Generator: Adobe Illustrator 27.7.0, SVG Export Plug-In . SVG Version: 6.00 Build 0)  -->
<svg version="1.1" id="Layer_1" xmlns="http://www.w3.org/2000/svg" xmlns:xlink="http://www.w3.org/1999/xlink" x="0px" y="0px"
	 width="1920px" height="1200px" viewBox="0 0 1920 1200" style="enable-background:new 0 0 1920 1200;" xml:space="preserve">
<g id="base">
	
		<image style="overflow:visible;enable-background:new    ;" width="1920" height="1200" id="Planta-Baja-map.psd_00000078030495855068824540000000448021878281498008_" xlink:href="../../tiny/pb-m.png"  transform="matrix(1.0022 0 0 0.9662 -2.0693 37.3306)">
	</image>
</g>
<g id="landmarks">
	<polygon id="1001" points="135.2,1049.9 135.2,424.5 324.4,424.5 324.4,445.6 482.5,445.6 482.5,400.5 457.1,400.5
		457.1,109.7 499.4,109.7 499.4,94.1 564.3,94.1 564.3,111.1 630.7,111.1 630.7,94.1 694.2,94.1 694.2,112.5 740.8,112.5 
		740.8,444.2 698.5,444.2 698.5,507.8 603.9,507.8 603.9,1049.9 	"/>
	<polygon id="1002" points="603.9,1049.9 603.9,507.8 698.5,507.8 698.5,444.2 1329.5,444.2 1329.5,1049.9 	"/>
	<polygon id="1003" points="1188.3,444.2 1188.3,108.2 1229.3,108.2 1229.3,94.1 1297.1,94.1 1297.1,113.9 1359.2,113.9
		1359.2,94.1 1428.3,94.1 1428.3,115.3 1467.9,115.3 1467.9,392 1446.7,392 1446.7,444.2 1600.6,444.2 1600.6,428.7 1792.6,428.7 
		1792.6,1049.9 1329.5,1049.9 1329.5,444.2 	"/>
</g>
</svg>
