<?xml version="1.0" encoding="utf-8"?>
<!-- Generator: Adobe Illustrator 27.7.0, SVG Export Plug-In . SVG Version: 6.00 Build 0)  -->
<svg version="1.1" id="Layer_1" xmlns="http://www.w3.org/2000/svg" xmlns:xlink="http://www.w3.org/1999/xlink" x="0px" y="0px"
	 width="1920px" height="1200px" viewBox="0 0 1920 1200" style="enable-background:new 0 0 1920 1200;" xml:space="preserve">
<style type="text/css">
	.st0{fill:#1D1D1B;}
</style>
<g id="base">
	
		<image style="overflow:visible;enable-background:new    ;" width="1920" height="1200" xlink:href="../../tiny/ph-m.png"  transform="matrix(1.1044 0 0 1.1044 -101.2538 -75.6595)">
	</image>
</g>
<g id="landmarks">
	<polygon id="ph" class="st0" points="343.9,812.8 410.3,812.8 410.3,914.9 585,914.9 585,1060 1250.3,1060 1250.3,917.4 
		1646.3,917.4 1646.3,812.8 1711.5,812.8 1711.5,484.5 1565.1,484.5 1565.1,421.7 1588.5,421.7 1588.5,125.4 1274.9,125.4 
		1274.9,395.9 1159.3,395.9 1159.3,238.5 886.3,238.5 886.3,394.7 710.4,394.7 710.4,490.6 343.9,490.6 	"/>
</g>
</svg>
